<?xml version="1.0" encoding="UTF-8" standalone="no"?>
<!DOCTYPE svg PUBLIC "-//W3C//DTD SVG 1.1//EN" "http://www.w3.org/Graphics/SVG/1.1/DTD/svg11.dtd">
<svg width="100%" height="100%" viewBox="0 0 1500 1500" version="1.1" xmlns="http://www.w3.org/2000/svg" xmlns:xlink="http://www.w3.org/1999/xlink" xml:space="preserve" xmlns:serif="http://www.serif.com/" style="fill-rule:evenodd;clip-rule:evenodd;stroke-linecap:round;stroke-linejoin:round;">
    <rect x="0" y="0" width="1500" height="1500" style="fill:rgb(246,244,242);"/>
    <g transform="matrix(0.943441,0,0,0.872893,40.9627,97.1603)">
        <path d="M1431.89,359.733L1431.89,1136.08C1431.89,1297.33 1310.76,1428.25 1161.56,1428.25L341.524,1428.25C192.326,1428.25 71.197,1297.33 71.197,1136.08L71.197,359.733C71.197,198.477 192.326,67.557 341.524,67.557L1161.56,67.557C1310.76,67.557 1431.89,198.477 1431.89,359.733Z" style="fill:none;stroke:rgb(224,119,45);stroke-width:55.01px;"/>
    </g>
    <g transform="matrix(2.00642,0,0,2.00642,-629.317,1154.29)">
        <circle cx="687.452" cy="94.488" r="62.548" style="fill:rgb(224,119,45);stroke:rgb(246,244,242);stroke-width:16.61px;"/>
    </g>
    <g transform="matrix(2.00642,0,0,2.00642,-629.317,-33.4516)">
        <circle cx="687.452" cy="94.488" r="62.548" style="fill:rgb(224,119,45);stroke:rgb(246,244,242);stroke-width:16.61px;"/>
    </g>
    <g transform="matrix(18.0114,0,0,18.0114,-7715.82,-14205.3)">
        <g transform="matrix(50,0,0,50,439.527,847.826)">
            <path d="M0.327,-0.067C0.208,-0.067 0.135,-0.166 0.135,-0.35C0.135,-0.534 0.208,-0.633 0.327,-0.633C0.424,-0.633 0.461,-0.557 0.485,-0.496L0.56,-0.528C0.541,-0.594 0.478,-0.71 0.327,-0.71C0.133,-0.71 0.05,-0.54 0.05,-0.35C0.05,-0.16 0.133,0.01 0.327,0.01C0.478,0.01 0.541,-0.106 0.56,-0.172L0.485,-0.204C0.461,-0.143 0.424,-0.067 0.327,-0.067Z" style="fill-rule:nonzero;"/>
        </g>
        <g transform="matrix(50,0,0,50,470.027,847.826)">
            <path d="M0.327,-0.067C0.208,-0.067 0.135,-0.166 0.135,-0.35C0.135,-0.534 0.208,-0.633 0.327,-0.633C0.424,-0.633 0.461,-0.557 0.485,-0.496L0.56,-0.528C0.541,-0.594 0.478,-0.71 0.327,-0.71C0.133,-0.71 0.05,-0.54 0.05,-0.35C0.05,-0.16 0.133,0.01 0.327,0.01C0.478,0.01 0.541,-0.106 0.56,-0.172L0.485,-0.204C0.461,-0.143 0.424,-0.067 0.327,-0.067Z" style="fill-rule:nonzero;"/>
        </g>
    </g>
</svg>
